:SAMPLES-PER-SECOND 30
:FRAME-RANGE 1-744
:FULLY-SPECIFIED
:DEGREES
419
root  -3.82182 17.0836 96.7081 2.18939 -0.435898 -6.85751
RightUpLeg  -83.7607 9.20414 1.77172
RightLeg  125.971 0.147033 0.441524
RightFoot  -43.3434 2.03358 8.12447
RightToes  5.82063e-011 0 -3.6325e-017
Spine  56.4324 3.92305 0.994237
Spine1  4.08986 6.86112 -2.23132
HEad  -24.0324 -13.0418 -1.59742
LeftShoulder1  4.39459 -12.5239 -21.0268
LeftArm  -35.8873 -68.9457 -16.1392
LeftForeArm  -5.65934 -5.99415 -13.6324
LeftHand  -0.671841 -9.26741 5.70161
RightShoulder  17.8606 36.1116 38.3538
RightArm  -41.6105 32.1305 -6.78508
RightForeArm  -3.79533 9.31912 7.67213
RightHand  0.898761 26.0101 2.75681
LeftUpLeg  -81.6072 12.6568 15.7328
LeftLeg  128.723 6.30626 -7.72555
LeftFoot  -46.3048 1.728 4.58099
LeftToes  1.25507e-010 -3.78807e-010 5.71421e-011
420
root  -3.79801 16.9169 96.7082 1.87376 -0.395813 -6.70311
RightUpLeg  -83.9785 9.52607 1.35193
RightLeg  126.597 0.281047 0.271473
RightFoot  -43.4135 2.18124 8.61928
RightToes  5.82063e-011 0 -3.6325e-017
Spine  56.7646 3.82745 0.859769
Spine1  3.85689 6.74534 -2.35182
HEad  -23.1627 -13.0395 -1.65997
LeftShoulder1  4.34578 -12.4127 -20.9046
LeftArm  -33.56 -68.4341 -16.8277
LeftForeArm  -7.48555 -6.98143 -13.6731
LeftHand  -0.767974 -9.03047 6.55581
RightShoulder  17.9208 36.0077 38.6187
RightArm  -41.2239 32.0578 -6.72241
RightForeArm  -2.94895 9.65768 7.68403
RightHand  0.665864 26.5251 1.86581
LeftUpLeg  -81.7111 12.1351 15.6811
LeftLeg  129.36 6.00208 -7.22359
LeftFoot  -46.4323 1.7131 4.51361
LeftToes  1.25507e-010 -3.78807e-010 5.71421e-011
421
root  -3.77773 16.7686 96.6944 1.74858 -0.477615 -6.79999
RightUpLeg  -84.3618 10.0802 1.22292
RightLeg  127.036 0.528337 -0.0324223
RightFoot  -43.3112 2.39549 9.39012
RightToes  5.82063e-011 0 -3.6325e-017
Spine  56.9077 3.92629 0.874409
Spine1  3.57178 6.83942 -2.12701
HEad  -22.5455 -12.7697 -1.75071
LeftShoulder1  4.31044 -12.4072 -20.6775
LeftArm  -33.0807 -68.0973 -18.1099
LeftForeArm  -7.86618 -6.64149 -13.6886
LeftHand  -0.796566 -9.05277 6.77524
RightShoulder  17.8578 35.8951 38.5951
RightArm  -41.1196 32.0511 -6.89622
RightForeArm  -2.95971 9.82136 7.71115
RightHand  0.676174 26.2765 1.9232
LeftUpLeg  -81.9735 11.5586 16.0378
LeftLeg  129.903 5.76208 -6.83089
LeftFoot  -46.5878 1.6131 4.17495
LeftToes  1.25507e-010 -3.78807e-010 5.71421e-011
422
root  -3.75186 16.675 96.6443 1.53696 -0.680466 -6.71448
RightUpLeg  -84.6516 10.5704 0.802312
RightLeg  127.294 0.612795 -0.132124
RightFoot  -43.1682 2.43858 9.58113
RightToes  5.82063e-011 0 -3.6325e-017
Spine  57.1713 3.92052 0.830363
Spine1  3.41095 6.83278 -2.2126
HEad  -22.5771 -12.4617 -1.65264
LeftShoulder1  4.26137 -12.3738 -20.4079
LeftArm  -33.9533 -67.9997 -18.4146
LeftForeArm  -8.08253 -6.02503 -13.6289
LeftHand  -0.794303 -9.19027 6.69899
RightShoulder  17.7614 36.0022 38.2379
RightArm  -41.6597 32.2374 -7.0375
RightForeArm  -2.51153 9.68849 7.64339
RightHand  0.712304 26.1192 2.06754
LeftUpLeg  -82.0363 11.2334 16.0542
LeftLeg  130.185 5.67718 -6.67487
LeftFoot  -46.6844 1.45339 3.66026
LeftToes  1.25507e-010 -3.78807e-010 5.71421e-011
423
root  -3.74612 16.6185 96.5834 1.44724 -0.882217 -6.8856
RightUpLeg  -84.9515 10.9798 0.863015
RightLeg  127.326 0.729126 -0.273643
RightFoot  -42.8629 2.48639 9.83907
RightToes  5.82063e-011 0 -3.6325e-017
Spine  57.4055 3.96819 0.930367
Spine1  2.98099 6.94889 -2.18049
HEad  -22.484 -12.1608 -1.20797
LeftShoulder1  4.28806 -12.3223 -20.6821
LeftArm  -34.6258 -68.1287 -18.2293
LeftForeArm  -8.26296 -5.67185 -13.6342
LeftHand  -0.7355 -8.89102 6.35138
RightShoulder  17.7022 36.1598 37.9148
RightArm  -42.0425 32.4115 -7.09981
RightForeArm  -2.31 9.1547 7.61346
RightHand  0.668595 25.964 1.92166
LeftUpLeg  -82.2035 11.167 16.3847
LeftLeg  130.328 5.60445 -6.56454
LeftFoot  -46.5139 1.42281 3.58638
LeftToes  1.25507e-010 -3.78807e-010 5.71421e-011
424
root  -3.75286 16.6306 96.483 1.45215 -1.14415 -7.01675
RightUpLeg  -85.2116 11.3608 0.931004
RightLeg  127.024 0.801314 -0.369507
RightFoot  -42.5569 2.48343 9.92164
RightToes  5.82063e-011 0 -3.6325e-017
Spine  57.5157 4.09586 1.03752
Spine1  2.60864 7.10061 -2.05667
HEad  -22.3093 -12.0746 -0.724804
LeftShoulder1  4.24577 -12.3144 -20.4106
LeftArm  -36.0027 -68.5349 -18.4564
LeftForeArm  -8.32013 -4.30163 -13.598
LeftHand  -0.510275 -9.18058 4.44993
RightShoulder  17.5813 36.3607 37.3953
RightArm  -42.2528 32.6219 -7.14434
RightForeArm  -2.58163 8.16286 7.58173
RightHand  0.770856 25.8281 2.30809
LeftUpLeg  -82.3624 11.3261 16.6133
LeftLeg  130.149 5.65936 -6.66343
LeftFoot  -46.3535 1.33713 3.33589
LeftToes  1.25507e-010 -3.78807e-010 5.71421e-011
425
root  -3.73524 16.7711 96.3399 1.32806 -1.30589 -6.74013
RightUpLeg  -85.1038 11.4537 0.507811
RightLeg  126.344 0.76006 -0.33509
RightFoot  -42.0796 2.46425 10.0009
RightToes  5.82063e-011 0 -3.6325e-017
Spine  57.7205 3.99282 1.03163
Spine1  2.27821 6.99097 -2.22395
HEad  -22.1755 -11.9864 -0.423904
LeftShoulder1  4.24318 -12.4793 -20.0957
LeftArm  -38.2011 -69.1529 -17.633
LeftForeArm  -8.5434 -2.20062 -13.3949
LeftHand  -0.374711 -8.73418 3.46092
RightShoulder  17.5264 36.8429 36.7293
RightArm  -42.372 33.0687 -7.1589
RightForeArm  -3.18582 6.34876 7.38054
RightHand  0.960362 25.8307 3.00261
LeftUpLeg  -82.201 11.3106 15.9739
LeftLeg  129.503 5.25234 -6.35759
LeftFoot  -45.9021 1.35624 3.45314
LeftToes  1.25507e-010 -3.78807e-010 5.71421e-011
426
root  -3.75266 17.0378 96.2161 1.28542 -1.67642 -7.01797
RightUpLeg  -84.6345 11.7974 0.934291
RightLeg  125.169 0.73484 -0.331381
RightFoot  -41.3768 2.38485 9.93229
RightToes  5.82063e-011 0 -3.6325e-017
Spine  57.3479 3.98836 1.26274
Spine1  2.46452 7.08486 -2.19569
HEad  -21.8521 -11.9427 -0.220121
LeftShoulder1  4.23458 -12.7628 -19.5403
LeftArm  -40.3028 -69.8822 -16.3541
LeftForeArm  -7.13638 0.195969 -12.7648
LeftHand  -0.66143 -8.62853 5.84861
RightShoulder  17.6598 37.8997 35.9102
RightArm  -42.6807 33.7411 -7.5746
RightForeArm  -4.57971 3.38087 7.01542
RightHand  1.43768 24.9997 4.9022
LeftUpLeg  -81.7175 11.8675 16.1336
LeftLeg  128.517 5.17651 -6.48484
LeftFoot  -45.2384 1.42006 3.74829
LeftToes  1.25507e-010 -3.78807e-010 5.71421e-011
427
root  -3.75225 17.4958 96.0795 1.58282 -2.13811 -7.30275
RightUpLeg  -83.9932 12.219 1.35586
RightLeg  123.285 0.827108 -0.509841
RightFoot  -40.4672 2.26517 9.77235
RightToes  5.82063e-011 0 -3.6325e-017
Spine  56.6098 3.94532 1.61841
Spine1  2.70077 7.22814 -2.31672
HEad  -21.59 -12.1894 0.160718
LeftShoulder1  4.19817 -13.0419 -18.829
LeftArm  -42.1189 -70.9579 -15.3208
LeftForeArm  -6.11621 2.97183 -12.2704
LeftHand  -0.587943 -8.01146 5.45653
RightShoulder  17.5841 39.1746 34.4214
RightArm  -43.1219 34.3608 -7.91886
RightForeArm  -4.15403 -0.1848 6.4823
RightHand  1.45383 24.177 5.12222
LeftUpLeg  -80.9926 12.1867 16.1734
LeftLeg  126.869 4.88688 -6.50516
LeftFoot  -44.6622 1.28538 3.38005
LeftToes  1.25507e-010 -3.78807e-010 5.71421e-011
428
root  -3.7467 18.1575 95.9483 2.07327 -2.3069 -7.37546
RightUpLeg  -82.9341 12.2969 1.51116
RightLeg  120.766 0.80888 -0.565362
RightFoot  -39.526 2.12984 9.54869
RightToes  5.82063e-011 0 -3.6325e-017
Spine  55.6654 3.7882 1.91668
Spine1  2.81352 7.26535 -2.48823
HEad  -21.2562 -12.4953 0.374718
LeftShoulder1  4.15082 -13.2495 -18.183
LeftArm  -42.4832 -72.0994 -15.4009
LeftForeArm  -2.85767 5.75713 -12.1927
LeftHand  -0.738791 -6.95277 7.287
RightShoulder  17.3325 40.2158 32.8274
RightArm  -43.0803 35.1046 -8.00069
RightForeArm  -2.47646 -3.67426 6.10115
RightHand  1.17031 22.7335 4.26837
LeftUpLeg  -80.1082 11.8897 15.6719
LeftLeg  124.592 3.73012 -5.50363
LeftFoot  -43.7262 1.14408 3.01823
LeftToes  1.25507e-010 -3.78807e-010 5.71421e-011
429
root  -3.7304 19.0638 95.8008 2.68535 -2.61891 -7.41559
RightUpLeg  -81.3686 12.5104 1.68298
RightLeg  117.347 0.823891 -0.719568
RightFoot  -38.2739 2.00281 9.44395
RightToes  5.82063e-011 0 -3.6325e-017
Spine  54.738 3.77154 2.26829
Spine1  2.88948 7.35668 -2.49295
HEad  -21.2179 -12.745 0.521018
LeftShoulder1  4.11316 -13.4415 -17.6375
LeftArm  -41.5114 -73.0106 -17.052
LeftForeArm  -1.68348 7.80578 -12.2245
LeftHand  -0.736623 -6.06827 7.78241
RightShoulder  17.0765 41.1284 31.3987
RightArm  -42.1599 35.5942 -7.92678
RightForeArm  -0.7644 -6.35257 6.08255
RightHand  0.783567 21.2407 2.88063
LeftUpLeg  -78.6554 11.5349 15.1375
LeftLeg  121.392 2.80276 -4.77597
LeftFoot  -42.5823 0.991725 2.6167
LeftToes  1.25507e-010 -3.78807e-010 5.71421e-011
430
root  -3.71549 20.1988 95.664 3.23071 -3.01453 -7.59822
RightUpLeg  -79.0447 12.7869 2.09752
RightLeg  113.025 0.812071 -0.901733
RightFoot  -36.831 1.79061 9.01761
RightToes  5.82063e-011 0 -3.6325e-017
Spine  54.0061 3.66058 2.80916
Spine1  2.86977 7.47183 -2.65176
HEad  -21.0067 -12.6912 0.160977
LeftShoulder1  4.06007 -13.492 -17.2201
LeftArm  -38.8142 -73.165 -20.9961
LeftForeArm  0.799671 7.87223 -12.4663
LeftHand  -0.64402 -4.75688 7.65786
RightShoulder  17.0784 41.8887 30.7185
RightArm  -41.5403 36.0095 -7.6764
RightForeArm  3.12683 -6.87926 6.20551
RightHand  0.525547 20.0106 1.88537
LeftUpLeg  -76.451 11.4149 14.7568
LeftLeg  117.35 2.06778 -4.26467
LeftFoot  -41.2866 0.874962 2.33044
LeftToes  1.25507e-010 -3.78807e-010 5.71421e-011
